<?xml version="1.0" standalone="no"?>
<!DOCTYPE svg PUBLIC "-//W3C//DTD SVG 20010904//EN"
 "http://www.w3.org/TR/2001/REC-SVG-20010904/DTD/svg10.dtd">
<svg version="1.0" xmlns="http://www.w3.org/2000/svg"
 width="219.000000pt" height="219.000000pt" viewBox="0 0 219.000000 219.000000"
 preserveAspectRatio="xMidYMid meet">
<metadata>
Created by potrace 1.10, written by Peter Selinger 2001-2011
</metadata>
<g transform="translate(0.000000,219.000000) scale(0.100000,-0.100000)"
fill="#F6DAAA" stroke="none">
<path d="M1248 1611 c-55 -26 -97 -61 -130 -109 -31 -46 -53 -51 -72 -17 -6
11 -17 24 -24 30 -7 6 -18 21 -25 35 -16 33 -74 70 -106 69 -14 0 -39 -8 -56
-18 -29 -17 -30 -21 -33 -97 -2 -43 4 -142 12 -219 8 -77 18 -171 22 -209 7
-83 19 -112 48 -120 77 -21 118 14 126 107 4 47 9 63 22 65 11 2 18 -6 23 -25
15 -68 125 -93 172 -39 21 25 23 35 23 156 0 71 5 141 10 155 12 31 42 59 82
76 24 10 32 7 71 -21 73 -52 106 -110 157 -277 21 -68 8 -225 -24 -293 -26
-57 -58 -100 -73 -100 -5 0 -25 -11 -44 -26 -121 -90 -272 -95 -444 -14 -86
39 -130 70 -234 158 -63 53 -103 66 -129 40 -14 -14 -16 -81 -3 -106 6 -9 13
-30 16 -46 3 -16 23 -45 44 -65 54 -52 178 -133 231 -152 25 -8 63 -24 85 -34
32 -15 69 -20 183 -23 134 -4 148 -2 224 23 45 15 89 36 97 46 16 20 52 44 84
55 9 3 17 10 17 15 0 4 14 23 31 41 49 53 88 116 101 161 30 108 17 392 -21
467 -10 19 -23 56 -30 82 -7 26 -24 57 -37 69 -13 12 -24 27 -24 33 0 14 -81
96 -95 96 -7 0 -34 11 -61 25 -60 30 -158 33 -216 6z"/>
<path d="M445 1573 c-13 -12 -16 -28 -12 -61 3 -24 9 -47 14 -51 6 -3 18 -22
27 -42 10 -21 33 -53 53 -73 l36 -36 -24 -37 c-54 -84 -62 -128 -27 -157 19
-16 27 -17 73 -7 39 9 62 23 101 60 59 57 74 87 74 149 0 42 -4 51 -42 88 -24
22 -66 70 -95 106 -38 48 -60 67 -84 72 -51 10 -76 7 -94 -11z"/>
</g>
</svg>
