<?xml version="1.0" standalone="no"?>
<!DOCTYPE svg PUBLIC "-//W3C//DTD SVG 20010904//EN"
 "http://www.w3.org/TR/2001/REC-SVG-20010904/DTD/svg10.dtd">
<svg version="1.0" xmlns="http://www.w3.org/2000/svg"
 width="300.000000pt" height="200.000000pt" viewBox="0 0 300.000000 200.000000"
 preserveAspectRatio="xMidYMid meet">
<metadata>
Created by potrace 1.10, written by Peter Selinger 2001-2011
</metadata>
<g transform="translate(0.000000,200.000000) scale(0.100000,-0.100000)"
fill="#F6DAAA" stroke="none">
<path d="M1215 1648 c-16 -6 -45 -24 -63 -42 l-33 -31 2 -175 c1 -96 -2 -187
-6 -202 -9 -36 -33 -36 -86 -2 -23 14 -60 32 -83 40 -22 8 -86 36 -141 63
-363 177 -373 181 -416 181 -27 0 -57 -9 -85 -25 -36 -21 -45 -34 -63 -86 -24
-73 -19 -88 56 -161 34 -33 69 -54 118 -73 39 -14 108 -48 155 -74 118 -68
173 -95 260 -130 41 -16 111 -45 155 -65 78 -34 80 -36 83 -73 2 -21 -1 -60
-7 -88 -28 -125 -45 -247 -45 -326 -1 -79 1 -88 27 -123 122 -159 246 -31 276
285 5 52 12 102 16 112 10 25 65 22 106 -7 63 -45 234 -144 284 -166 28 -12
75 -40 105 -64 163 -126 225 -156 320 -156 47 0 64 5 96 29 89 63 103 94 130
276 8 61 22 137 30 170 7 33 14 110 14 170 0 61 7 146 15 190 14 79 13 81 -11
135 -31 69 -70 109 -154 160 -93 56 -138 53 -179 -14 -39 -63 -24 -169 33
-230 21 -23 25 -36 21 -65 -3 -20 -12 -99 -21 -176 -18 -170 -41 -275 -59
-275 -7 0 -18 7 -26 16 -7 8 -31 25 -53 36 -23 12 -72 44 -111 73 -38 29 -80
56 -92 59 -12 4 -55 29 -96 55 -40 27 -89 54 -108 60 -19 7 -61 27 -94 45
l-60 33 -5 287 -5 288 -45 39 c-48 41 -92 49 -155 27z"/>
</g>
</svg>
