<?xml version="1.0" standalone="no"?>
<!DOCTYPE svg PUBLIC "-//W3C//DTD SVG 20010904//EN"
 "http://www.w3.org/TR/2001/REC-SVG-20010904/DTD/svg10.dtd">
<svg version="1.0" xmlns="http://www.w3.org/2000/svg"
 width="300.000000pt" height="348.000000pt" viewBox="0 0 300.000000 348.000000"
 preserveAspectRatio="xMidYMid meet">
<metadata>
Created by potrace 1.10, written by Peter Selinger 2001-2011
</metadata>
<g transform="translate(0.000000,348.000000) scale(0.100000,-0.100000)"
fill="#F6DAAA" stroke="none">
<path d="M605 3271 c-37 -18 -78 -48 -108 -80 l-48 -52 6 -212 c10 -318 10
-848 1 -968 -10 -126 -1 -166 52 -209 20 -16 58 -34 87 -41 45 -10 56 -9 91 9
36 18 68 48 103 94 7 10 24 71 37 135 30 148 33 370 8 471 -14 56 -15 75 -3
141 7 42 13 111 13 154 1 57 5 80 16 87 22 14 51 12 83 -5 16 -8 51 -21 78
-29 27 -8 62 -22 77 -30 45 -24 245 -105 277 -112 17 -4 71 -23 120 -41 50
-19 117 -43 150 -53 33 -10 94 -29 135 -43 41 -14 111 -35 155 -47 155 -43
182 -69 100 -97 -22 -7 -51 -24 -65 -37 -14 -13 -63 -50 -110 -81 -47 -32
-101 -70 -120 -86 -20 -15 -71 -51 -115 -81 -143 -96 -194 -139 -285 -240
-112 -125 -134 -188 -90 -260 11 -18 20 -40 20 -48 0 -24 70 -87 122 -110 25
-11 79 -29 120 -39 40 -10 132 -35 203 -54 72 -19 157 -41 190 -48 77 -17 203
-60 246 -85 19 -11 67 -33 107 -48 40 -16 77 -35 82 -42 7 -7 9 -65 8 -144 -3
-112 -6 -135 -20 -144 -23 -14 -138 6 -232 40 -233 84 -404 137 -576 178 -107
26 -232 55 -276 66 -45 11 -94 20 -109 20 -14 0 -91 16 -169 35 -79 19 -156
35 -172 35 -31 0 -161 -31 -205 -48 -45 -18 -87 -77 -113 -162 -23 -72 -26
-98 -26 -230 0 -82 5 -172 11 -202 56 -280 83 -335 171 -345 41 -5 45 -3 97
51 l54 57 8 90 c5 49 11 95 15 100 3 6 7 66 9 135 2 77 8 131 16 140 16 20
199 20 239 -1 15 -8 77 -26 137 -40 128 -29 210 -54 238 -70 11 -6 56 -19 100
-29 44 -9 107 -26 140 -37 61 -21 108 -34 225 -64 36 -9 106 -34 155 -56 111
-48 325 -119 357 -119 66 0 128 31 186 91 31 33 62 71 69 83 8 16 14 119 18
322 l7 299 -27 85 c-15 47 -34 93 -43 103 -9 10 -52 42 -96 72 -62 41 -113 65
-216 100 -74 25 -162 55 -195 67 -131 46 -229 78 -296 94 -39 9 -73 23 -76 30
-11 29 32 66 141 119 116 57 296 182 381 265 28 27 82 70 121 97 39 26 83 62
97 79 51 61 137 196 137 216 0 24 -46 91 -92 136 -32 30 -188 102 -283 129
-22 7 -89 26 -150 43 -129 37 -201 61 -389 130 -77 28 -185 62 -240 75 -127
30 -270 80 -317 110 -20 13 -71 41 -115 64 -43 22 -106 58 -139 80 -33 23 -70
41 -81 41 -12 0 -41 7 -64 15 -58 21 -85 18 -155 -14z"/>
</g>
</svg>
