<?xml version="1.0" standalone="no"?>
<!DOCTYPE svg PUBLIC "-//W3C//DTD SVG 20010904//EN"
 "http://www.w3.org/TR/2001/REC-SVG-20010904/DTD/svg10.dtd">
<svg version="1.0" xmlns="http://www.w3.org/2000/svg"
 width="219.000000pt" height="219.000000pt" viewBox="0 0 219.000000 219.000000"
 preserveAspectRatio="xMidYMid meet">
<metadata>
Created by potrace 1.10, written by Peter Selinger 2001-2011
</metadata>
<g transform="translate(0.000000,219.000000) scale(0.100000,-0.100000)"
fill="#F6DAAA" stroke="none">
<path d="M1673 1728 c-27 -18 -67 -42 -89 -52 -21 -11 -59 -36 -84 -56 -25
-20 -53 -39 -64 -43 -10 -4 -30 -16 -45 -28 -96 -74 -103 -78 -119 -69 -30 16
-183 87 -302 138 -63 28 -135 62 -160 76 -25 14 -67 33 -93 42 -45 15 -50 15
-87 -4 -49 -24 -75 -56 -84 -102 -6 -33 -28 -247 -41 -410 l-6 -75 43 -55 c49
-62 142 -119 196 -120 29 0 160 -60 203 -93 24 -18 82 -134 76 -150 -7 -18
-59 -15 -139 6 -31 9 -77 19 -103 22 -25 4 -48 11 -51 16 -3 5 -39 9 -79 9
-67 0 -78 -3 -105 -27 -28 -26 -30 -31 -23 -68 6 -27 17 -44 33 -52 14 -7 30
-20 37 -29 12 -17 62 -39 111 -51 12 -3 22 -9 22 -14 0 -5 9 -9 20 -9 11 0 39
-9 63 -19 75 -34 109 -41 192 -41 96 0 152 20 201 72 35 36 44 67 51 176 4 57
1 76 -10 85 -8 7 -18 32 -21 57 -4 24 -18 59 -31 76 -14 18 -25 37 -25 43 0
16 -107 118 -141 135 -18 9 -40 16 -50 16 -10 0 -21 5 -24 10 -3 6 -13 10 -21
10 -8 0 -53 19 -101 41 l-86 42 7 96 c4 53 11 100 16 105 5 5 45 -10 98 -38
50 -25 96 -46 102 -46 7 0 51 -19 98 -42 48 -22 96 -45 107 -49 48 -18 161
-72 175 -83 8 -7 35 -21 60 -31 25 -10 88 -46 140 -80 181 -116 225 -126 293
-66 l31 29 4 329 4 329 -37 37 c-49 49 -93 50 -162 5z m-23 -375 c0 -94 -11
-100 -85 -43 -30 23 -55 45 -55 49 1 15 18 30 57 50 23 11 45 25 48 31 5 8 11
7 21 -1 10 -8 14 -34 14 -86z"/>
</g>
</svg>
