<?xml version="1.0" standalone="no"?>
<!DOCTYPE svg PUBLIC "-//W3C//DTD SVG 20010904//EN"
 "http://www.w3.org/TR/2001/REC-SVG-20010904/DTD/svg10.dtd">
<svg version="1.0" xmlns="http://www.w3.org/2000/svg"
 width="220.000000pt" height="220.000000pt" viewBox="0 0 220.000000 220.000000"
 preserveAspectRatio="xMidYMid meet">
<metadata>
Created by potrace 1.10, written by Peter Selinger 2001-2011
</metadata>
<g transform="translate(0.000000,220.000000) scale(0.050000,-0.050000)"
fill="#F6DAAA" stroke="none">
<path d="M1926 3528 c-51 -52 -52 -53 -37 -265 8 -117 22 -316 30 -443 30
-470 209 -630 589 -531 160 41 236 79 434 213 94 64 99 42 93 -413 l-5 -419
-98 5 c-54 3 -108 14 -120 24 -26 21 -188 63 -507 131 -123 27 -290 71 -370
97 -80 27 -212 64 -295 83 -82 18 -168 41 -190 50 -293 124 -680 184 -792 124
-130 -71 -139 -196 -60 -824 25 -208 102 -293 231 -258 148 41 157 66 141 378
-17 323 -20 318 165 259 74 -24 167 -51 205 -60 39 -8 133 -38 210 -65 77 -28
180 -57 229 -65 50 -8 162 -40 251 -71 88 -32 237 -72 330 -89 231 -43 432
-85 540 -110 375 -90 463 -70 528 121 41 123 23 1381 -22 1507 -75 209 -332
214 -583 12 -68 -54 -129 -99 -137 -99 -7 0 -32 -16 -55 -36 -46 -41 -262
-112 -289 -95 -9 6 -22 62 -29 126 -60 598 -76 671 -162 724 -89 56 -162 52
-225 -11z"/>
</g>
</svg>
