<?xml version="1.0" standalone="no"?>
<!DOCTYPE svg PUBLIC "-//W3C//DTD SVG 20010904//EN"
 "http://www.w3.org/TR/2001/REC-SVG-20010904/DTD/svg10.dtd">
<svg version="1.0" xmlns="http://www.w3.org/2000/svg"
 width="300.000000pt" height="248.000000pt" viewBox="0 0 300.000000 248.000000"
 preserveAspectRatio="xMidYMid meet">
<metadata>
Created by potrace 1.10, written by Peter Selinger 2001-2011
</metadata>
<g transform="translate(0.000000,248.000000) scale(0.100000,-0.100000)"
fill="#F6DAAA" stroke="none">
<path d="M633 2306 c-51 -19 -122 -73 -135 -103 -16 -38 -30 -1142 -16 -1233
5 -36 15 -110 22 -165 43 -342 76 -536 97 -561 17 -20 73 -27 113 -14 60 20
87 69 137 250 20 74 28 129 29 187 0 129 19 154 89 118 16 -8 68 -24 117 -35
132 -31 268 -68 364 -98 l85 -27 6 -80 c4 -52 14 -98 29 -130 13 -28 31 -72
40 -100 15 -43 21 -50 43 -48 64 4 107 64 107 149 0 63 20 174 31 174 5 0 62
-14 127 -31 64 -18 140 -35 167 -39 28 -4 95 -17 150 -29 123 -26 433 -31 488
-7 102 42 130 198 50 273 -19 18 -46 35 -61 39 -15 3 -35 9 -44 15 -10 5 -26
9 -35 9 -10 0 -103 16 -208 35 -104 20 -230 42 -280 51 -94 16 -105 18 -245
57 l-85 23 2 79 c7 302 7 456 -1 498 l-9 47 77 0 c60 0 87 -5 124 -23 26 -13
88 -36 137 -52 50 -15 119 -39 155 -52 78 -30 183 -40 233 -24 45 15 104 82
118 133 8 31 6 49 -13 103 -12 36 -31 74 -43 85 -30 28 -171 85 -258 105 -81
18 -120 31 -257 85 -52 21 -113 41 -135 45 -81 15 -228 57 -248 72 -13 10
-111 40 -307 93 -63 17 -176 51 -250 74 -74 24 -162 48 -196 54 -76 15 -269
13 -311 -2z m349 -423 c23 -9 105 -33 183 -54 77 -20 163 -44 190 -54 28 -9
56 -19 63 -21 9 -2 12 -56 12 -221 0 -120 5 -273 12 -340 6 -67 10 -125 7
-128 -3 -2 -50 6 -105 20 -85 21 -122 25 -266 25 -91 0 -173 3 -182 6 -14 5
-16 39 -16 278 0 195 -4 302 -15 376 -9 57 -14 109 -11 117 7 18 77 17 128 -4z"/>
</g>
</svg>
