<?xml version="1.0" standalone="no"?>
<!DOCTYPE svg PUBLIC "-//W3C//DTD SVG 20010904//EN"
 "http://www.w3.org/TR/2001/REC-SVG-20010904/DTD/svg10.dtd">
<svg version="1.0" xmlns="http://www.w3.org/2000/svg"
 width="300.000000pt" height="278.000000pt" viewBox="0 0 300.000000 278.000000"
 preserveAspectRatio="xMidYMid meet">
<metadata>
Created by potrace 1.10, written by Peter Selinger 2001-2011
</metadata>
<g transform="translate(0.000000,278.000000) scale(0.100000,-0.100000)"
fill="#F6DAAA" stroke="none">
<path d="M1325 2555 c-217 -35 -254 -45 -349 -90 -52 -25 -98 -45 -102 -45 -3
0 -22 -14 -42 -31 -20 -17 -50 -38 -68 -45 -18 -8 -38 -22 -43 -31 -5 -10 -30
-40 -56 -68 -26 -27 -64 -72 -85 -100 -20 -27 -47 -58 -58 -69 -12 -10 -24
-31 -27 -46 -3 -16 -13 -34 -21 -41 -8 -6 -14 -20 -14 -30 0 -23 -60 -141 -77
-152 -7 -4 -13 -21 -13 -37 0 -16 -4 -31 -8 -34 -10 -6 -36 -97 -52 -181 -6
-33 -15 -73 -20 -90 -5 -16 -14 -60 -20 -97 -24 -135 8 -562 44 -608 7 -8 22
-42 34 -75 27 -70 57 -129 86 -168 45 -59 181 -187 199 -187 5 0 22 -11 38
-24 15 -13 48 -27 71 -31 24 -4 53 -13 66 -21 51 -33 291 -33 352 0 14 8 41
17 60 21 19 4 42 12 50 19 8 6 31 20 50 30 40 22 110 89 110 105 0 6 17 30 38
54 61 67 82 98 82 120 0 30 42 107 58 107 28 0 171 -164 172 -196 0 -6 9 -19
21 -30 12 -10 27 -31 35 -46 8 -16 19 -28 24 -28 6 0 34 -24 64 -52 81 -79
116 -110 166 -145 41 -30 52 -33 117 -33 60 0 77 4 111 26 35 23 40 32 48 77
13 84 9 178 -10 242 -18 60 -27 154 -45 480 -6 94 -17 206 -26 250 -9 44 -20
110 -25 147 -5 37 -15 76 -21 86 -15 23 -61 52 -83 52 -18 0 -116 -92 -116
-109 0 -7 -9 -29 -20 -51 -16 -32 -20 -59 -20 -149 0 -68 -4 -112 -11 -116 -7
-5 -10 -43 -8 -106 2 -60 -1 -103 -8 -110 -11 -11 -76 55 -118 121 -12 19 -34
46 -49 60 -29 26 -60 68 -113 154 -34 54 -40 65 -83 162 -32 72 -91 131 -139
140 -39 8 -84 -11 -142 -59 l-39 -32 0 -113 c0 -81 4 -123 16 -150 27 -64 1
-295 -40 -354 -9 -12 -16 -35 -16 -50 0 -15 -8 -33 -19 -40 -11 -8 -25 -25
-31 -38 -14 -31 -94 -84 -146 -99 -90 -25 -151 -12 -251 54 -53 35 -133 117
-133 136 0 9 -7 34 -16 55 -66 153 -72 511 -11 618 6 12 17 41 23 66 32 121
48 167 72 214 14 28 29 53 32 56 3 3 21 30 40 60 49 78 246 258 300 275 14 4
31 12 38 18 18 14 187 41 262 41 111 0 291 -35 340 -65 30 -19 108 -45 205
-69 30 -8 93 -29 171 -56 22 -9 62 -33 90 -54 60 -48 109 -71 131 -63 26 10
11 122 -27 187 -16 30 -30 61 -30 70 0 9 -6 16 -14 16 -8 0 -18 9 -21 20 -3
11 -15 25 -26 30 -10 6 -19 16 -19 23 -1 20 -113 134 -155 156 -22 12 -60 34
-85 49 -25 15 -70 37 -100 48 -61 24 -290 69 -311 62 -8 -3 -34 1 -58 9 -52
15 -69 15 -176 -2z"/>
</g>
</svg>
