<?xml version="1.0" standalone="no"?>
<!DOCTYPE svg PUBLIC "-//W3C//DTD SVG 20010904//EN"
 "http://www.w3.org/TR/2001/REC-SVG-20010904/DTD/svg10.dtd">
<svg version="1.0" xmlns="http://www.w3.org/2000/svg"
 width="134.000000pt" height="300.000000pt" viewBox="0 0 134.000000 300.000000"
 preserveAspectRatio="xMidYMid meet">
<metadata>
Created by potrace 1.10, written by Peter Selinger 2001-2011
</metadata>
<g transform="translate(0.000000,300.000000) scale(0.100000,-0.100000)"
fill="#6c7d2e" stroke="none">
<path d="M1027 2828 c-4 -46 -13 -153 -21 -237 -8 -85 -13 -159 -10 -163 3 -4
29 -8 59 -8 l53 0 6 108 c4 59 10 147 14 196 l8 88 -44 49 c-24 27 -47 49 -51
49 -5 0 -11 -37 -14 -82z"/>
<path d="M933 2453 c4 -3 10 -3 14 0 3 4 0 7 -7 7 -7 0 -10 -3 -7 -7z"/>
<path d="M870 2410 c0 -13 50 -13 70 0 11 7 4 10 -27 10 -24 0 -43 -4 -43 -10z"/>
<path d="M948 2389 c-19 -11 -25 -49 -8 -49 5 0 16 14 25 30 16 31 12 36 -17
19z"/>
<path d="M990 2373 c0 -10 9 -29 20 -43 11 -14 18 -18 16 -10 -2 8 -7 27 -10
43 -7 30 -26 37 -26 10z"/>
<path d="M1033 2363 c3 -17 9 -42 13 -57 9 -38 -21 -35 -45 5 l-19 30 -6 -33
c-3 -18 -10 -80 -16 -138 -5 -58 -14 -132 -20 -164 -5 -33 -8 -62 -6 -64 3 -2
-4 -29 -15 -59 -10 -31 -18 -57 -17 -59 2 -1 31 -5 65 -9 49 -5 64 -4 67 7 6
20 26 138 31 183 3 22 9 63 15 91 6 28 10 55 8 60 -1 5 4 55 11 112 7 57 12
105 10 107 -2 2 -22 6 -43 11 l-39 7 6 -30z"/>
<path d="M560 2037 c0 -121 -4 -177 -12 -185 -9 -9 3 -12 55 -12 l67 0 0 123
c0 177 -4 191 -56 222 -23 14 -45 25 -48 25 -3 0 -6 -78 -6 -173z"/>
<path d="M566 1803 c-18 -5 -18 -13 -12 -146 5 -106 12 -152 26 -182 10 -22
21 -51 25 -64 6 -20 11 -22 38 -17 17 4 35 12 39 19 10 15 9 82 -5 260 l-10
137 -41 -1 c-23 -1 -49 -3 -60 -6z"/>
<path d="M896 1788 c-4 -16 -28 -136 -31 -163 -2 -11 -12 -72 -23 -135 -11
-63 -23 -143 -26 -177 -8 -69 -1 -76 69 -71 45 3 50 12 64 108 6 41 16 107 21
145 6 39 19 106 29 150 11 44 21 96 23 115 l3 35 -63 3 c-44 2 -63 -1 -66 -10z"/>
<path d="M475 1420 c28 -12 37 -12 30 0 -3 6 -16 10 -28 9 -21 0 -21 -1 -2 -9z"/>
<path d="M473 1370 c-13 -5 -23 -14 -23 -20 0 -13 0 -13 46 10 40 20 22 28
-23 10z"/>
<path d="M547 1350 c-9 -14 -17 -34 -17 -45 0 -16 4 -14 21 12 25 39 21 68 -4
33z"/>
<path d="M584 1333 c-12 -28 -14 -55 -10 -108 4 -38 9 -110 11 -158 3 -48 7
-92 10 -98 7 -11 95 -12 111 -1 12 7 5 196 -11 340 l-8 62 -44 0 c-41 0 -45
-2 -59 -37z"/>
<path d="M795 1189 c-4 -11 -5 -22 -2 -25 2 -2 -1 -36 -8 -74 -7 -38 -10 -72
-7 -75 8 -8 110 -6 115 3 3 4 8 29 11 55 l7 49 -44 -26 c-73 -43 -75 -33 -12
53 l45 61 -49 0 c-41 0 -51 -3 -56 -21z"/>
<path d="M1020 1207 c0 -2 18 -19 41 -37 31 -25 38 -28 30 -12 -15 28 -71 66
-71 49z"/>
<path d="M897 1163 c-39 -37 -43 -52 -9 -34 20 11 57 60 50 67 -2 2 -21 -13
-41 -33z"/>
<path d="M980 1145 c0 -59 0 -60 15 -31 19 35 19 47 0 72 -13 17 -14 14 -15
-41z"/>
<path d="M837 981 l-38 -6 46 -21 c32 -15 45 -17 45 -8 0 7 3 19 6 28 7 17 4
17 -59 7z"/>
<path d="M800 943 c8 -3 24 -10 35 -15 20 -9 20 -9 1 6 -11 9 -27 16 -35 15
-14 0 -14 -1 -1 -6z"/>
<path d="M673 917 c-34 -37 -39 -51 -14 -38 20 11 46 49 39 57 -3 2 -14 -6
-25 -19z"/>
<path d="M744 918 c3 -13 6 -31 6 -40 0 -25 17 -22 23 3 7 26 0 46 -20 53 -12
5 -14 1 -9 -16z"/>
<path d="M592 898 c2 -18 7 -33 11 -33 4 0 17 15 28 33 l21 32 -32 0 c-29 0
-31 -2 -28 -32z"/>
<path d="M790 895 c0 -27 -19 -76 -34 -87 -6 -4 -5 -16 2 -33 7 -14 12 -41 12
-60 0 -34 1 -35 40 -35 35 0 40 3 46 28 3 15 8 34 10 42 2 8 6 43 9 77 l6 61
-30 7 c-17 4 -33 11 -36 16 -11 17 -25 9 -25 -16z"/>
<path d="M701 893 c-5 -11 -31 -31 -56 -44 l-46 -24 2 -130 c1 -71 6 -136 12
-142 5 -8 32 -13 64 -13 l55 0 -7 183 c-4 100 -9 184 -10 185 -2 2 -8 -5 -14
-15z"/>
<path d="M411 824 c0 -11 3 -14 6 -6 3 7 2 16 -1 19 -3 4 -6 -2 -5 -13z"/>
<path d="M400 790 c0 -7 3 -10 7 -7 3 4 3 10 0 14 -4 3 -7 0 -7 -7z"/>
<path d="M748 578 c-2 -40 -2 -155 0 -255 2 -140 6 -183 16 -183 11 0 34 118
41 210 3 40 26 191 36 239 12 52 4 61 -53 61 l-36 0 -4 -72z"/>
<path d="M307 619 c-20 -12 -57 -90 -57 -117 1 -25 54 40 73 89 16 41 14 45
-16 28z"/>
<path d="M184 596 c-28 -13 -54 -28 -58 -34 -5 -8 110 43 123 54 12 11 -20 1
-65 -20z"/>
<path d="M605 437 c-4 -34 -5 -115 -3 -180 3 -132 6 -137 73 -137 68 0 67 -4
59 198 l-7 182 -58 0 -57 0 -7 -63z"/>
</g>
</svg>
