<?xml version="1.0" standalone="no"?>
<!DOCTYPE svg PUBLIC "-//W3C//DTD SVG 20010904//EN"
 "http://www.w3.org/TR/2001/REC-SVG-20010904/DTD/svg10.dtd">
<svg version="1.0" xmlns="http://www.w3.org/2000/svg"
 width="219.000000pt" height="219.000000pt" viewBox="0 0 219.000000 219.000000"
 preserveAspectRatio="xMidYMid meet">
<metadata>
Created by potrace 1.10, written by Peter Selinger 2001-2011
</metadata>
<g transform="translate(0.000000,219.000000) scale(0.100000,-0.100000)"
fill="#F6DAAA" stroke="none">
<path d="M1083 1700 c-26 -11 -29 -20 -43 -165 -16 -177 -14 -246 13 -295 29
-56 54 -79 103 -96 43 -15 145 -19 159 -6 6 5 30 15 55 22 25 7 60 24 78 38
18 13 36 21 39 18 10 -9 2 -310 -8 -321 -6 -6 -21 -3 -42 7 -17 10 -57 24 -87
33 -30 9 -68 20 -85 26 -16 6 -69 21 -118 35 -48 13 -106 33 -129 44 -23 11
-54 20 -68 20 -15 0 -60 12 -101 26 -41 15 -119 34 -174 44 -94 16 -100 18
-103 42 -3 26 40 132 58 143 6 3 10 25 10 48 0 54 -23 71 -83 62 -68 -11 -109
-36 -145 -90 l-34 -50 7 -140 c4 -77 6 -187 5 -245 l-1 -105 36 -35 c32 -31
42 -35 104 -38 63 -4 70 -2 85 19 22 31 20 63 -5 115 -33 65 -23 78 54 70 65
-8 273 -66 342 -96 22 -10 65 -23 95 -30 30 -7 80 -22 110 -32 30 -11 96 -33
145 -49 50 -17 98 -34 107 -39 27 -15 132 -12 163 4 59 31 59 33 62 371 3 300
3 311 -18 350 -30 57 -60 76 -122 78 -60 1 -86 -12 -170 -82 -31 -26 -75 -54
-97 -61 -61 -20 -76 -2 -84 108 -12 150 -26 213 -54 239 -28 25 -28 25 -59 13z"/>
</g>
</svg>
