<?xml version="1.0" standalone="no"?>
<!DOCTYPE svg PUBLIC "-//W3C//DTD SVG 20010904//EN"
 "http://www.w3.org/TR/2001/REC-SVG-20010904/DTD/svg10.dtd">
<svg version="1.0" xmlns="http://www.w3.org/2000/svg"
 width="220.000000pt" height="220.000000pt" viewBox="0 0 220.000000 220.000000"
 preserveAspectRatio="xMidYMid meet">
<metadata>
Created by potrace 1.10, written by Peter Selinger 2001-2011
</metadata>
<g transform="translate(0.000000,220.000000) scale(0.100000,-0.100000)"
fill="#F6DAAA" stroke="none">
<path d="M1290 1863 c-28 -26 -30 -34 -41 -143 -6 -63 -13 -118 -15 -122 -2
-3 -21 0 -42 7 -20 7 -71 23 -112 35 -41 12 -98 33 -125 46 -28 13 -55 24 -61
24 -6 0 -29 9 -52 20 -22 11 -48 20 -57 20 -9 0 -18 6 -21 14 -3 8 -35 18 -77
25 -59 10 -78 10 -104 -1 -70 -30 -99 -100 -114 -278 -16 -196 -15 -249 9
-295 36 -67 73 -101 137 -124 33 -12 74 -29 90 -38 17 -8 48 -24 70 -35 22
-10 51 -25 64 -31 14 -7 24 -16 23 -21 0 -5 -27 -19 -59 -31 -32 -12 -74 -31
-93 -43 -19 -12 -45 -22 -56 -22 -12 0 -27 -7 -34 -15 -7 -8 -18 -15 -25 -15
-22 0 -84 -78 -91 -115 -4 -24 -1 -51 11 -81 14 -36 27 -50 68 -74 29 -17 61
-30 71 -30 22 0 103 -37 112 -51 3 -5 13 -9 23 -9 9 0 36 -9 59 -20 22 -11 46
-20 52 -20 7 0 49 -18 93 -39 79 -37 157 -61 280 -84 68 -13 101 -4 130 35 17
23 18 31 8 56 -25 59 -37 67 -297 195 -105 52 -194 99 -198 105 -7 11 43 52
64 52 7 0 24 8 38 18 15 10 47 29 72 42 25 13 56 29 70 36 14 8 37 14 52 14
25 0 39 -4 103 -31 11 -4 69 -22 129 -38 171 -48 262 -40 286 25 18 45 -3 70
-92 112 -46 22 -92 42 -103 45 -39 11 -93 33 -106 44 -8 6 -43 21 -79 33 -36
12 -83 30 -105 40 -124 55 -357 140 -385 140 -11 0 -118 46 -160 69 -8 5 -14
19 -13 32 11 131 16 161 29 166 8 3 39 -7 69 -21 31 -14 59 -26 64 -26 4 0 41
-13 80 -30 40 -16 89 -32 109 -36 20 -3 71 -17 112 -30 50 -16 98 -24 147 -24
66 0 74 2 105 30 l33 30 -1 128 c-1 121 -13 246 -29 304 -4 16 -19 33 -40 42
-42 20 -39 21 -75 -11z"/>
</g>
</svg>
